<?xml version="1.0" encoding="UTF-8"?>
<svg xmlns="http://www.w3.org/2000/svg" xmlns:xlink="http://www.w3.org/1999/xlink" width="8.1in" height="9.9in" viewBox="48 48 9777 11880">
<g style="stroke-width:.025in; fill:none">
<!-- Line: box -->
<rect x="94" y="94" width="9685" height="7039" rx="0" style="stroke:#000000;stroke-width:48; stroke-linejoin:miter; stroke-linecap:butt; "/>
<!-- Line: box -->
<rect x="7842" y="283" width="1559" height="992" rx="0" style="stroke:#000000;stroke-width:16; stroke-linejoin:miter; stroke-linecap:butt; fill:#7f7f7f; "/>
<!-- Line: box -->
<rect x="7464" y="2125" width="1511" height="1133" rx="0" style="stroke:#000000;stroke-width:16; stroke-linejoin:miter; stroke-linecap:butt; "/>
<!-- Line: box -->
<rect x="472" y="1889" width="3448" height="2598" rx="0" style="stroke:#000000;stroke-width:16; stroke-linejoin:miter; stroke-linecap:butt; fill:#7f7f7f; "/>
<!-- Line: box -->
<rect x="2362" y="5574" width="1559" height="803" rx="0" style="stroke:#000000;stroke-width:16; stroke-linejoin:miter; stroke-linecap:butt; fill:#87cfff; "/>
<!-- Line: box -->
<rect x="1417" y="10393" width="3496" height="1511" rx="0" style="stroke:#000000;stroke-width:16; stroke-linejoin:miter; stroke-linecap:butt; "/>
<!-- Line: box -->
<rect x="1842" y="283" width="3779" height="992" rx="0" style="stroke:#000000;stroke-width:16; stroke-linejoin:miter; stroke-linecap:butt; fill:#7f7f7f; "/>
<!-- Line: box -->
<rect x="1417" y="2362" width="1417" height="708" rx="0" style="stroke:#000000;stroke-width:16; stroke-linejoin:miter; stroke-linecap:butt; fill:#87cfff; "/>
<!-- Line -->
<polyline points="4677,3165 6708,3165 " style="stroke:#000000;stroke-width:16; stroke-linejoin:miter; stroke-linecap:butt; "/>
<!-- Line -->
<polyline points="4677,3212 6708,3212 " style="stroke:#000000;stroke-width:16; stroke-linejoin:miter; stroke-linecap:butt; "/>
<!-- Line -->
<polyline points="4677,3212 6708,3212 " style="stroke:#000000;stroke-width:16; stroke-linejoin:miter; stroke-linecap:butt; "/>
<!-- Line: box -->
<rect x="4582" y="2125" width="2267" height="2362" rx="0" style="stroke:#000000;stroke-width:16; stroke-linejoin:miter; stroke-linecap:butt; fill:#7f7f7f; "/>
<!-- Line: box -->
<rect x="614" y="3543" width="1511" height="519" rx="0" style="stroke:#000000;stroke-width:16; stroke-linejoin:miter; stroke-linecap:butt; fill:#87cfff; "/>
<!-- Line: box -->
<rect x="2220" y="3543" width="1559" height="519" rx="0" style="stroke:#000000;stroke-width:16; stroke-linejoin:miter; stroke-linecap:butt; fill:#87cfff; "/>
<!-- Line: box -->
<rect x="330" y="5669" width="1795" height="519" rx="0" style="stroke:#000000;stroke-width:16; stroke-linejoin:miter; stroke-linecap:butt; "/>
<!-- Line -->
<polyline points="2834,1275 2834,1511 2031,1511 2031,1763 " style="stroke:#000000;stroke-width:16; stroke-linejoin:miter; stroke-linecap:butt; "/>
<!-- Arrowhead on XXXpoint 2031 1511 - 2031 1921-->
<polygon points="1984 1772 2031 1898 2078 1772 1984 1772  " style="stroke:#000000;stroke-width:16;stroke-miterlimit:8; fill:#000000;"/>
<!-- Line -->
<polyline points="5244,1275 5244,2000 " style="stroke:#000000;stroke-width:16; stroke-linejoin:miter; stroke-linecap:butt; "/>
<!-- Arrowhead on XXXpoint 5244 1275 - 5244 2157-->
<polygon points="5196 2008 5244 2134 5291 2008 5196 2008  " style="stroke:#000000;stroke-width:16;stroke-miterlimit:8; fill:#000000;"/>
<!-- Line -->
<polyline points="8267,1275 8267,1952 " style="stroke:#000000;stroke-width:16; stroke-linejoin:miter; stroke-linecap:butt; "/>
<!-- Arrowhead on XXXpoint 8267 1275 - 8267 2110-->
<polygon points="8220 1961 8267 2087 8314 1961 8220 1961  " style="stroke:#000000;stroke-width:16;stroke-miterlimit:8; fill:#000000;"/>
<!-- Line -->
<polyline points="3023,4062 3023,5448 " style="stroke:#000000;stroke-width:16; stroke-linejoin:miter; stroke-linecap:butt; "/>
<!-- Arrowhead on XXXpoint 3023 4062 - 3023 5606-->
<polygon points="2976 5457 3023 5583 3070 5457 2976 5457  " style="stroke:#000000;stroke-width:16;stroke-miterlimit:8; fill:#000000;"/>
<!-- Line -->
<polyline points="2362,5952 2250,5952 " style="stroke:#000000;stroke-width:16; stroke-linejoin:miter; stroke-linecap:butt; "/>
<!-- Arrowhead on XXXpoint 2362 5952 - 2094 5952-->
<polygon points="2243 5905 2117 5952 2243 6000 2243 5905  " style="stroke:#000000;stroke-width:16;stroke-miterlimit:8; fill:#000000;"/>
<!-- Line -->
<polyline points="4677,2881 4299,2881 4299,5905 4046,5905 " style="stroke:#000000;stroke-width:16; stroke-linejoin:miter; stroke-linecap:butt; "/>
<!-- Arrowhead on XXXpoint 4299 5905 - 3889 5905-->
<polygon points="4038 5858 3912 5905 4038 5952 4038 5858  " style="stroke:#000000;stroke-width:16;stroke-miterlimit:8; fill:#000000;"/>
<!-- Line -->
<polyline points="6708,2881 7338,2881 " style="stroke:#000000;stroke-width:16; stroke-linejoin:miter; stroke-linecap:butt; "/>
<!-- Arrowhead on XXXpoint 6708 2881 - 7496 2881-->
<polygon points="7346 2929 7472 2881 7346 2834 7346 2929  " style="stroke:#000000;stroke-width:16;stroke-miterlimit:8; fill:#000000;"/>
<!-- Line -->
<polyline points="1830,3184 1428,3429 " style="stroke:#000000;stroke-width:16; stroke-linejoin:miter; stroke-linecap:butt; "/>
<!-- Arrowhead on XXXpoint 1937 3118 - 1295 3511-->
<polygon points="1397 3392 1315 3499 1446 3472 1397 3392  " style="stroke:#000000;stroke-width:16;stroke-miterlimit:8; fill:#000000;"/>
<!-- Arrowhead on XXXpoint 1322 3496 - 1963 3101-->
<polygon points="1860 3219 1943 3113 1811 3139 1860 3219  " style="stroke:#000000;stroke-width:16;stroke-miterlimit:8; fill:#000000;"/>
<!-- Line -->
<polyline points="2469,3184 2869,3429 " style="stroke:#000000;stroke-width:16; stroke-linejoin:miter; stroke-linecap:butt; "/>
<!-- Arrowhead on XXXpoint 2362 3118 - 3002 3511-->
<polygon points="2850 3472 2982 3499 2899 3392 2850 3472  " style="stroke:#000000;stroke-width:16;stroke-miterlimit:8; fill:#000000;"/>
<!-- Arrowhead on XXXpoint 2976 3496 - 2334 3101-->
<polygon points="2486 3139 2354 3113 2436 3219 2486 3139  " style="stroke:#000000;stroke-width:16;stroke-miterlimit:8; fill:#000000;"/>
<!-- Line -->
<polyline points="3496,6629 3496,10094 " style="stroke:#000000;stroke-width:48; stroke-linejoin:miter; stroke-linecap:butt; "/>
<!-- Arrowhead on XXXpoint 3496 6377 - 3496 10409-->
<polygon points="3401 10087 3496 10339 3590 10087 3401 10087  " style="stroke:#000000;stroke-width:48;stroke-miterlimit:8; fill:#000000;"/>
<!-- Arrowhead on XXXpoint 3496 10346 - 3496 6314-->
<polygon points="3590 6637 3496 6385 3401 6637 3590 6637  " style="stroke:#000000;stroke-width:48;stroke-miterlimit:8; fill:#000000;"/>
<!-- Line -->
<polyline points="3496,6944 9165,6944 9165,1526 " style="stroke:#000000;stroke-width:48; stroke-linejoin:miter; stroke-linecap:butt; "/>
<!-- Arrowhead on XXXpoint 9165 6944 - 9165 1212-->
<polygon points="9259 1534 9165 1282 9070 1534 9259 1534  " style="stroke:#000000;stroke-width:48;stroke-miterlimit:8; fill:#000000;"/>
<!-- Line -->
<polyline points="2834,10205 2834,6565 " style="stroke:#000000;stroke-width:32; stroke-linejoin:miter; stroke-linecap:butt; "/>
<!-- Arrowhead on XXXpoint 2834 10393 - 2834 6330-->
<polygon points="2904 6566 2834 6377 2763 6566 2904 6566  " style="stroke:#000000;stroke-width:32;stroke-miterlimit:8; fill:#000000;"/>
<!-- Arrowhead on XXXpoint 2834 6377 - 2834 10440-->
<polygon points="2763 10204 2834 10393 2904 10204 2763 10204  " style="stroke:#000000;stroke-width:32;stroke-miterlimit:8; fill:#000000;"/>
<!-- Text -->
<text xml:space="preserve" x="3637" y="1039" fill="#000000" font-family="Helvetica" font-style="normal" font-weight="bold" font-size="189" text-anchor="middle">(gdm, kdm, login)</text>
<!-- Text -->
<text xml:space="preserve" x="3685" y="614" fill="#000000" font-family="Helvetica" font-style="normal" font-weight="bold" font-size="189" text-anchor="middle">PAM aware applications</text>
<!-- Text -->
<text xml:space="preserve" x="8598" y="897" fill="#000000" font-family="Helvetica" font-style="normal" font-weight="bold" font-size="189" text-anchor="middle">apps</text>
<!-- Text -->
<text xml:space="preserve" x="8598" y="661" fill="#000000" font-family="Helvetica" font-style="normal" font-weight="bold" font-size="189" text-anchor="middle">kerberized </text>
<!-- Text -->
<text xml:space="preserve" x="1370" y="3874" fill="#000000" font-family="Helvetica" font-style="normal" font-weight="bold" font-size="189" text-anchor="middle">nss_compat</text>
<!-- Text -->
<text xml:space="preserve" x="3023" y="3874" fill="#000000" font-family="Helvetica" font-style="normal" font-weight="bold" font-size="189" text-anchor="middle">nss_winbind</text>
<!-- Text -->
<text xml:space="preserve" x="2078" y="2740" fill="#000000" font-family="Helvetica" font-style="normal" font-weight="bold" font-size="189" text-anchor="middle">nscd</text>
<!-- Text -->
<text xml:space="preserve" x="8173" y="2409" fill="#000000" font-family="Helvetica" font-style="normal" font-weight="bold" font-size="189" text-anchor="middle">Kerberos</text>
<!-- Text -->
<text xml:space="preserve" x="8173" y="2692" fill="#000000" font-family="Helvetica" font-style="normal" font-weight="bold" font-size="189" text-anchor="middle">Credential</text>
<!-- Text -->
<text xml:space="preserve" x="8173" y="2976" fill="#000000" font-family="Helvetica" font-style="normal" font-weight="bold" font-size="189" text-anchor="middle">Cache</text>
<!-- Text -->
<text xml:space="preserve" x="2173" y="2173" fill="#000000" font-family="Helvetica" font-style="normal" font-weight="bold" font-size="215" text-anchor="middle">NSS</text>
<!-- Text -->
<text xml:space="preserve" x="5716" y="2409" fill="#000000" font-family="Helvetica" font-style="normal" font-weight="bold" font-size="215" text-anchor="middle">PAM</text>
<!-- Text -->
<text xml:space="preserve" x="1181" y="6000" fill="#000000" font-family="Helvetica" font-style="normal" font-weight="bold" font-size="189" text-anchor="middle">Offline Cache</text>
<!-- Text -->
<text xml:space="preserve" x="3118" y="6000" fill="#000000" font-family="Helvetica" font-style="normal" font-weight="bold" font-size="189" text-anchor="middle">winbindd</text>
<!-- Text -->
<text xml:space="preserve" x="3165" y="11007" fill="#000000" font-family="Helvetica" font-style="normal" font-weight="bold" font-size="215" text-anchor="middle">Windows DC</text>
<!-- Text -->
<text xml:space="preserve" x="3165" y="11637" fill="#000000" font-family="Helvetica" font-style="normal" font-weight="bold" font-size="215" text-anchor="middle">(Active Directory)</text>
<!-- Text -->
<g transform="translate(3874,8645) rotate(-90.00021046)">
<text xml:space="preserve" x="0" y="0" fill="#000000" font-family="Helvetica" font-style="normal" font-weight="bold" font-size="215" text-anchor="middle">Kerberos</text>
</g><!-- Text -->
<g transform="translate(2645,8787) rotate(-90.00021046)">
<text xml:space="preserve" x="0" y="0" fill="#000000" font-family="Helvetica" font-style="normal" font-weight="bold" font-size="189" text-anchor="middle">and various MS protocols</text>
</g><!-- Text -->
<g transform="translate(2314,9354) rotate(-90.00021046)">
<text xml:space="preserve" x="0" y="0" fill="#000000" font-family="Helvetica" font-style="normal" font-weight="bold" font-size="189" text-anchor="middle">LDAP, Kerberos</text>
</g><!-- Line: box -->
<rect x="4677" y="2551" width="2034" height="1795" rx="0" style="stroke:#000000;stroke-width:16; stroke-linejoin:miter; stroke-linecap:butt; fill:#87cfff; "/>
<!-- Line -->
<polyline points="4677,3779 6708,3779 " style="stroke:#000000;stroke-width:16; stroke-linejoin:miter; stroke-linecap:butt; "/>
<!-- Line -->
<polyline points="4677,3212 6708,3212 " style="stroke:#000000;stroke-width:16; stroke-linejoin:miter; stroke-linecap:butt; "/>
<!-- Text -->
<text xml:space="preserve" x="5669" y="2976" fill="#000000" font-family="Helvetica" font-style="normal" font-weight="bold" font-size="189" text-anchor="middle">pam_winbind</text>
<!-- Text -->
<text xml:space="preserve" x="5669" y="4062" fill="#000000" font-family="Helvetica" font-style="normal" font-weight="bold" font-size="189" text-anchor="middle">pam_mkhomedir</text>
<!-- Text -->
<text xml:space="preserve" x="5669" y="3543" fill="#000000" font-family="Helvetica" font-style="normal" font-weight="bold" font-size="189" text-anchor="middle">pam_unix2</text>
</g>
</svg>


