<?xml version="1.0" encoding="UTF-8"?>
<svg xmlns="http://www.w3.org/2000/svg" xmlns:xlink="http://www.w3.org/1999/xlink" width="28.3in" height="45.9in" viewBox="11855 138 33973 55029">
<g style="stroke-width:.025in; fill:none">
<!-- Line -->
<polygon points="42717,43086 41079,43086 41079,46211 39764,46211 41902,48348 44031,46211 42717,46211 42717,43086 " style="stroke:#ffffff;stroke-width:30; stroke-linejoin:miter; stroke-linecap:butt; stroke-dasharray:10 125;fill:#e5e5e5; "/>
<!-- Line -->
<polygon points="42528,2834 40890,2834 40890,5959 39575,5959 41713,8096 43842,5959 42528,5959 42528,2834 " style="stroke:#ffffff;stroke-width:30; stroke-linejoin:miter; stroke-linecap:butt; stroke-dasharray:10 125;fill:#e5e5e5; "/>
<!-- Line -->
<polygon points="42528,23622 40890,23622 40890,26746 39575,26746 41713,28883 43842,26746 42528,26746 42528,23622 " style="stroke:#ffffff;stroke-width:30; stroke-linejoin:miter; stroke-linecap:butt; stroke-dasharray:10 125;fill:#e5e5e5; "/>
<!-- Line -->
<polygon points="27598,13039 25961,13039 25961,16163 24646,16163 26784,18301 28913,16163 27598,16163 27598,13039 " style="stroke:#ffffff;stroke-width:30; stroke-linejoin:miter; stroke-linecap:butt; stroke-dasharray:10 125;fill:#e5e5e5; "/>
<!-- Line -->
<polygon points="27598,34204 25961,34204 25961,37329 24646,37329 26784,39466 28913,37329 27598,37329 27598,34204 " style="stroke:#ffffff;stroke-width:30; stroke-linejoin:miter; stroke-linecap:butt; stroke-dasharray:10 125;fill:#e5e5e5; "/>
<!-- Circle -->
<circle cx="41574" cy="14740" r="2645" style="stroke:#000000;stroke-width:30;"/>
<!-- Circle -->
<circle cx="17007" cy="34393" r="2645" style="stroke:#000000;stroke-width:30;"/>
<!-- Circle -->
<circle cx="41574" cy="34582" r="377" style="stroke:#000000;stroke-width:30;"/>
<!-- Line -->
<polyline points="41574,8692 41574,11590 " style="stroke:#000000;stroke-width:30; stroke-linejoin:miter; stroke-linecap:butt; "/>
<!-- Arrowhead on XXXpoint 41574 8692 - 41574 12157-->
<polygon points="41448 11586 41574 12090 41700 11586 41448 11586  " style="stroke:#000000;stroke-width:30;stroke-miterlimit:8; fill:#000000;"/>
<!-- Line -->
<polyline points="41574,17385 41574,20472 " style="stroke:#000000;stroke-width:30; stroke-linejoin:miter; stroke-linecap:butt; "/>
<!-- Arrowhead on XXXpoint 41574 17385 - 41574 21039-->
<polygon points="41448 20468 41574 20972 41700 20468 41448 20468  " style="stroke:#000000;stroke-width:30;stroke-miterlimit:8; fill:#000000;"/>
<!-- Line -->
<polyline points="38929,14740 30924,14740 " style="stroke:#000000;stroke-width:30; stroke-linejoin:miter; stroke-linecap:butt; "/>
<!-- Arrowhead on XXXpoint 38929 14740 - 30362 14740-->
<polygon points="30933 14614 30429 14740 30933 14866 30933 14614  " style="stroke:#000000;stroke-width:30;stroke-miterlimit:8; fill:#000000;"/>
<!-- Line: box -->
<rect x="11905" y="22110" width="10015" height="6047" rx="440" style="stroke:#000000;stroke-width:30; stroke-linejoin:miter; stroke-linecap:butt; "/>
<!-- Line -->
<polyline points="22866,14929 17007,14929 17007,21606 " style="stroke:#000000;stroke-width:30; stroke-linejoin:miter; stroke-linecap:butt; "/>
<!-- Arrowhead on XXXpoint 17007 14929 - 17007 22173-->
<polygon points="16881 21602 17007 22106 17133 21602 16881 21602  " style="stroke:#000000;stroke-width:30;stroke-miterlimit:8; fill:#000000;"/>
<!-- Line -->
<polyline points="17007,28346 17007,31244 " style="stroke:#000000;stroke-width:30; stroke-linejoin:miter; stroke-linecap:butt; "/>
<!-- Arrowhead on XXXpoint 17007 28346 - 17007 31811-->
<polygon points="16881 31239 17007 31743 17133 31239 16881 31239  " style="stroke:#000000;stroke-width:30;stroke-miterlimit:8; fill:#000000;"/>
<!-- Line -->
<polyline points="19653,34582 22362,34582 " style="stroke:#000000;stroke-width:30; stroke-linejoin:miter; stroke-linecap:butt; "/>
<!-- Arrowhead on XXXpoint 19653 34582 - 22929 34582-->
<polygon points="22358 34708 22861 34582 22358 34456 22358 34708  " style="stroke:#000000;stroke-width:30;stroke-miterlimit:8; fill:#000000;"/>
<!-- Line -->
<polyline points="41574,29480 41574,33700 " style="stroke:#000000;stroke-width:30; stroke-linejoin:miter; stroke-linecap:butt; "/>
<!-- Arrowhead on XXXpoint 41574 29480 - 41574 34267-->
<polygon points="41448 33696 41574 34200 41700 33696 41448 33696  " style="stroke:#000000;stroke-width:30;stroke-miterlimit:8; fill:#000000;"/>
<!-- Line -->
<polyline points="41574,35149 41574,39937 " style="stroke:#000000;stroke-width:30; stroke-linejoin:miter; stroke-linecap:butt; "/>
<!-- Arrowhead on XXXpoint 41574 35149 - 41574 40503-->
<polygon points="41448 39932 41574 40436 41700 39932 41448 39932  " style="stroke:#000000;stroke-width:30;stroke-miterlimit:8; fill:#000000;"/>
<!-- Line -->
<polyline points="30614,34582 40692,34582 " style="stroke:#000000;stroke-width:30; stroke-linejoin:miter; stroke-linecap:butt; "/>
<!-- Arrowhead on XXXpoint 30614 34582 - 41259 34582-->
<polygon points="40688 34708 41192 34582 40688 34456 40688 34708  " style="stroke:#000000;stroke-width:30;stroke-miterlimit:8; fill:#000000;"/>
<!-- Line -->
<polyline points="41574,49133 41574,52787 " style="stroke:#000000;stroke-width:30; stroke-linejoin:miter; stroke-linecap:butt; "/>
<!-- Arrowhead on XXXpoint 41574 49133 - 41574 53354-->
<polygon points="41448 52783 41574 53287 41700 52783 41448 52783  " style="stroke:#000000;stroke-width:30;stroke-miterlimit:8; fill:#000000;"/>
<!-- Line -->
<polyline points="29291,4724 37291,4724 " style="stroke:#000000;stroke-width:30; stroke-linejoin:miter; stroke-linecap:butt; "/>
<!-- Arrowhead on XXXpoint 29291 4724 - 37858 4724-->
<polygon points="37287 4850 37791 4724 37287 4598 37287 4850  " style="stroke:#000000;stroke-width:30;stroke-miterlimit:8; fill:#000000;"/>
<!-- Text -->
<text xml:space="preserve" x="41574" y="15118" fill="#000000" font-family="Helvetica" font-style="normal" font-weight="bold" font-size="807" text-anchor="middle">Routing</text>
<!-- Text -->
<text xml:space="preserve" x="17007" y="34771" fill="#000000" font-family="Helvetica" font-style="normal" font-weight="bold" font-size="807" text-anchor="middle">Routing</text>
<!-- Text -->
<text xml:space="preserve" x="16818" y="25448" fill="#000000" font-family="Helvetica" font-style="normal" font-weight="bold" font-size="807" text-anchor="middle">in the local</text>
<!-- Text -->
<text xml:space="preserve" x="16818" y="26708" fill="#000000" font-family="Helvetica" font-style="normal" font-weight="bold" font-size="807" text-anchor="middle">system</text>
<!-- Text -->
<text xml:space="preserve" x="16818" y="24188" fill="#000000" font-family="Helvetica" font-style="normal" font-weight="bold" font-size="807" text-anchor="middle">Processes</text>
<!-- Text -->
<text xml:space="preserve" x="41763" y="54803" fill="#000000" font-family="Helvetica" font-style="normal" font-weight="bold" font-size="807" text-anchor="middle">outgoing packet</text>
<!-- Text -->
<text xml:space="preserve" x="30425" y="3779" fill="#000000" font-family="Helvetica" font-style="normal" font-weight="bold" font-size="807" text-anchor="middle">incoming packet</text>
<!-- Text -->
<text xml:space="preserve" x="26834" y="41196" fill="#000000" font-family="Helvetica" font-style="normal" font-weight="bold" font-size="807" text-anchor="middle">filter</text>
<!-- Line: box -->
<rect x="37984" y="40440" width="7559" height="8503" rx="0" style="stroke:#000000;stroke-width:30; stroke-linejoin:miter; stroke-linecap:butt; "/>
<!-- Line: box -->
<rect x="38929" y="43464" width="5669" height="1700" rx="0" style="stroke:#000000;stroke-width:30; stroke-linejoin:miter; stroke-linecap:butt; "/>
<!-- Line: box -->
<rect x="38929" y="46110" width="5669" height="1700" rx="0" style="stroke:#000000;stroke-width:30; stroke-linejoin:miter; stroke-linecap:butt; "/>
<!-- Line: box -->
<rect x="37795" y="188" width="7559" height="8503" rx="0" style="stroke:#000000;stroke-width:30; stroke-linejoin:miter; stroke-linecap:butt; "/>
<!-- Line: box -->
<rect x="38740" y="3212" width="5669" height="1700" rx="0" style="stroke:#000000;stroke-width:30; stroke-linejoin:miter; stroke-linecap:butt; "/>
<!-- Line: box -->
<rect x="38740" y="5858" width="5669" height="1700" rx="0" style="stroke:#000000;stroke-width:30; stroke-linejoin:miter; stroke-linecap:butt; "/>
<!-- Line: box -->
<rect x="37795" y="20976" width="7559" height="8503" rx="0" style="stroke:#000000;stroke-width:30; stroke-linejoin:miter; stroke-linecap:butt; "/>
<!-- Line: box -->
<rect x="38740" y="24000" width="5669" height="1700" rx="0" style="stroke:#000000;stroke-width:30; stroke-linejoin:miter; stroke-linecap:butt; "/>
<!-- Line: box -->
<rect x="38740" y="26645" width="5669" height="1700" rx="0" style="stroke:#000000;stroke-width:30; stroke-linejoin:miter; stroke-linecap:butt; "/>
<!-- Line: box -->
<rect x="22866" y="10393" width="7559" height="8503" rx="0" style="stroke:#000000;stroke-width:30; stroke-linejoin:miter; stroke-linecap:butt; "/>
<!-- Line: box -->
<rect x="23811" y="13417" width="5669" height="1700" rx="0" style="stroke:#000000;stroke-width:30; stroke-linejoin:miter; stroke-linecap:butt; "/>
<!-- Line: box -->
<rect x="23811" y="16062" width="5669" height="1700" rx="0" style="stroke:#000000;stroke-width:30; stroke-linejoin:miter; stroke-linecap:butt; "/>
<!-- Line: box -->
<rect x="23811" y="34582" width="5669" height="1700" rx="0" style="stroke:#000000;stroke-width:30; stroke-linejoin:miter; stroke-linecap:butt; "/>
<!-- Line: box -->
<rect x="22866" y="31559" width="7559" height="11716" rx="0" style="stroke:#000000;stroke-width:30; stroke-linejoin:miter; stroke-linecap:butt; "/>
<!-- Line: box -->
<rect x="23811" y="37228" width="5669" height="1700" rx="0" style="stroke:#000000;stroke-width:30; stroke-linejoin:miter; stroke-linecap:butt; "/>
<!-- Line: box -->
<rect x="23811" y="39874" width="5669" height="1700" rx="0" style="stroke:#000000;stroke-width:30; stroke-linejoin:miter; stroke-linecap:butt; "/>
<!-- Text -->
<text xml:space="preserve" x="41952" y="47244" fill="#000000" font-family="Helvetica" font-style="normal" font-weight="bold" font-size="807" text-anchor="middle">nat</text>
<!-- Text -->
<text xml:space="preserve" x="41952" y="44598" fill="#000000" font-family="Helvetica" font-style="normal" font-weight="bold" font-size="807" text-anchor="middle">mangle</text>
<!-- Text -->
<text xml:space="preserve" x="41763" y="42141" fill="#000000" font-family="Helvetica" font-style="normal" font-weight="bold" font-size="706" text-anchor="middle">POSTROUTING</text>
<!-- Text -->
<text xml:space="preserve" x="41574" y="1889" fill="#000000" font-family="Helvetica" font-style="normal" font-weight="bold" font-size="706" text-anchor="middle">PREROUTING</text>
<!-- Text -->
<text xml:space="preserve" x="41763" y="6992" fill="#000000" font-family="Helvetica" font-style="normal" font-weight="bold" font-size="807" text-anchor="middle">nat</text>
<!-- Text -->
<text xml:space="preserve" x="41763" y="4346" fill="#000000" font-family="Helvetica" font-style="normal" font-weight="bold" font-size="807" text-anchor="middle">mangle</text>
<!-- Text -->
<text xml:space="preserve" x="41574" y="22677" fill="#000000" font-family="Helvetica" font-style="normal" font-weight="bold" font-size="706" text-anchor="middle">FORWARD</text>
<!-- Text -->
<text xml:space="preserve" x="41763" y="25133" fill="#000000" font-family="Helvetica" font-style="normal" font-weight="bold" font-size="807" text-anchor="middle">mangle</text>
<!-- Text -->
<text xml:space="preserve" x="41763" y="27779" fill="#000000" font-family="Helvetica" font-style="normal" font-weight="bold" font-size="807" text-anchor="middle">filter</text>
<!-- Text -->
<text xml:space="preserve" x="26645" y="12094" fill="#000000" font-family="Helvetica" font-style="normal" font-weight="bold" font-size="706" text-anchor="middle">INPUT</text>
<!-- Text -->
<text xml:space="preserve" x="26834" y="14551" fill="#000000" font-family="Helvetica" font-style="normal" font-weight="bold" font-size="807" text-anchor="middle">mangle</text>
<!-- Text -->
<text xml:space="preserve" x="26834" y="17196" fill="#000000" font-family="Helvetica" font-style="normal" font-weight="bold" font-size="807" text-anchor="middle">filter</text>
<!-- Text -->
<text xml:space="preserve" x="26645" y="33259" fill="#000000" font-family="Helvetica" font-style="normal" font-weight="bold" font-size="706" text-anchor="middle">OUTPUT</text>
<!-- Text -->
<text xml:space="preserve" x="26834" y="38362" fill="#000000" font-family="Helvetica" font-style="normal" font-weight="bold" font-size="807" text-anchor="middle">nat</text>
<!-- Text -->
<text xml:space="preserve" x="26834" y="35716" fill="#000000" font-family="Helvetica" font-style="normal" font-weight="bold" font-size="807" text-anchor="middle">mangle</text>
</g>
</svg>


